<svg width="389" height="116" viewBox="0 0 389 116" fill="none" xmlns="http://www.w3.org/2000/svg">
<path d="M68.9062 12.8937C25.3428 -4.9453 -2.0038 0.924728 -2.0038 0.924728L-5 158H386.004L389 0.924725C389 0.924725 352.598 -4.50721 311.598 12.8937C273.823 28.926 235.692 84.9653 194.747 86.2807C152.369 87.6422 108.206 28.9868 68.9062 12.8937Z" fill="#311A39"/>
<path d="M68.9062 38.8937C25.3428 21.0547 -2.0038 26.9247 -2.0038 26.9247L-5 184H386.004L389 26.9247C389 26.9247 352.598 21.4928 311.598 38.8937C273.823 54.926 235.692 110.965 194.747 112.281C152.369 113.642 108.206 54.9868 68.9062 38.8937Z" fill="#3D1E48"/>
<path d="M68.9062 60.8937C25.3428 43.0547 -2.0038 48.9247 -2.0038 48.9247L-5 206H386.004L389 48.9247C389 48.9247 352.598 43.4928 311.598 60.8937C273.823 76.926 235.692 132.965 194.747 134.281C152.369 135.642 108.206 76.9868 68.9062 60.8937Z" fill="#582769"/>
</svg>
