<svg width="390" height="165" viewBox="0 0 390 165" fill="none" xmlns="http://www.w3.org/2000/svg">
<path d="M69.9062 12.8937C26.3428 -4.9453 -1.0038 0.924728 -1.0038 0.924728L-4 158H387.004L390 0.924725C390 0.924725 353.598 -4.50721 312.598 12.8937C274.823 28.926 236.692 84.9653 195.747 86.2807C153.369 87.6422 109.206 28.9868 69.9062 12.8937Z" fill="#311A39"/>
<path d="M69.9062 38.8937C26.3428 21.0547 -1.0038 26.9247 -1.0038 26.9247L-4 184H387.004L390 26.9247C390 26.9247 353.598 21.4928 312.598 38.8937C274.823 54.926 236.692 110.965 195.747 112.281C153.369 113.642 109.206 54.9868 69.9062 38.8937Z" fill="#3D1E48"/>
<path d="M69.9062 60.8937C26.3428 43.0547 -1.0038 48.9247 -1.0038 48.9247L-4 206H387.004L390 48.9247C390 48.9247 353.598 43.4928 312.598 60.8937C274.823 76.926 236.692 132.965 195.747 134.281C153.369 135.642 109.206 76.9868 69.9062 60.8937Z" fill="#582769"/>
</svg>
